<svg width="1123" height="793" viewBox="0 0 1123 793" fill="none" xmlns="http://www.w3.org/2000/svg">
<path fill-rule="evenodd" clip-rule="evenodd" d="M596.196 399.202V365.643H611.077C617.961 365.643 622.896 366.984 625.883 369.667C628.869 372.35 630.362 376.754 630.362 382.878C630.362 388.902 628.92 393.128 626.035 395.558C623.2 397.988 618.214 399.202 611.077 399.202H596.196ZM596.196 347.8V321.454H611.077C616.645 321.454 620.644 322.517 623.073 324.643C625.554 326.718 626.794 330.084 626.794 334.741C626.794 339.398 625.579 342.739 623.149 344.763C620.77 346.788 616.746 347.8 611.077 347.8H596.196ZM611.077 303.611H574.557V417.121H611.077C625.908 417.121 636.614 414.666 643.194 409.756C649.774 404.846 653.064 396.925 653.064 385.991C653.064 377.083 650.862 370.148 646.459 365.187C642.106 360.227 635.601 357.316 626.946 356.456C634.184 355.798 639.676 353.419 643.422 349.319C647.167 345.219 649.04 339.524 649.04 332.235C649.04 322.719 645.851 315.582 639.474 310.824C633.146 306.016 623.681 303.611 611.077 303.611ZM316.992 396.921V323.956H323.066C331.873 323.956 338.15 326.715 341.896 332.232C345.641 337.749 347.514 347.114 347.514 360.325C347.514 373.637 345.641 383.077 341.896 388.645C338.15 394.163 331.873 396.921 323.066 396.921H316.992ZM318.586 303.76H294.594V417.118H318.586C337.112 417.118 350.45 412.688 358.599 403.83C366.749 394.922 370.824 380.42 370.824 360.325C370.824 340.28 366.749 325.854 358.599 317.047C350.45 308.189 337.112 303.76 318.586 303.76ZM390.572 417.121H461.184V397.381H412.97V367.693H456.628V347.953H412.97V323.504H461.184V303.764H390.572V417.121ZM563.007 417.121H539.85L518.211 379.614L496.648 417.121H473.49L506.746 359.569L474.401 303.764H497.559L518.211 339.829L538.939 303.764H562.096L529.903 359.569L563.007 417.121ZM789.104 417.119H766.706V323.351H737.93V303.762H817.88V323.351H789.104V417.119ZM301.229 433.906H295.076V467.814H299.315V437.848L305.399 455.714H308.885L314.947 437.848V467.814H319.208V433.906H313.033L307.108 451.179L301.229 433.906ZM336.391 437.849L331.537 455.259H341.245L336.391 437.849ZM333.611 433.793H339.194L349.608 467.814H344.845L342.339 458.95H330.421L327.96 467.814H323.197L333.611 433.793ZM370.803 453.481C369.968 452.63 368.958 452.053 367.773 451.749C369.991 451.43 371.707 450.564 372.923 449.152C374.153 447.724 374.768 445.885 374.768 443.637C374.768 440.447 373.773 438.009 371.783 436.322C369.793 434.636 366.93 433.793 363.192 433.793H353.713V467.814H358.339V453.436H362.737C364.241 453.436 365.456 453.793 366.383 454.507C367.324 455.205 368.38 456.778 369.55 459.224L373.606 467.814H378.551L373.925 458.517C372.679 455.995 371.639 454.317 370.803 453.481ZM358.339 449.653V437.576H363.192C365.38 437.576 367.043 438.1 368.183 439.148C369.337 440.181 369.915 441.677 369.915 443.637C369.915 445.673 369.375 447.184 368.297 448.172C367.218 449.159 365.577 449.653 363.375 449.653H358.339ZM381.676 433.793H386.302V448.924L400.68 433.793H406.081L392.842 447.693L406.468 467.814H400.908L389.811 450.769L386.302 454.507V467.814H381.676V433.793ZM431.33 433.793H411.141V467.814H431.763V463.941H415.744V450.701H430.647V446.827H415.744V437.667H431.33V433.793ZM435.822 433.793H461.777V437.667H451.135V467.814H446.509V437.667H435.822V433.793ZM488.479 433.906H482.326V467.814H486.565V437.848L492.649 455.714H496.135L502.197 437.848V467.814H506.458V433.906H500.283L494.358 451.179L488.479 433.906ZM523.643 437.849L518.789 455.259H528.497L523.643 437.849ZM520.863 433.793H526.446L536.86 467.814H532.097L529.591 458.95H517.673L515.212 467.814H510.449L520.863 433.793ZM545.452 433.793H540.826V467.814H545.452V454.507L548.961 450.769L560.059 467.814H565.619L551.992 447.693L565.231 433.793H559.831L545.452 448.924V433.793ZM570.385 433.793H589.275V437.667H582.143V463.941H589.275V467.814H570.385V463.941H577.517V437.667H570.385V433.793ZM600.625 433.906H594.336V467.814H599.235V439.899L612.543 467.814H618.832V433.906H613.933V461.821L600.625 433.906ZM647.159 465.012C645.928 466.151 644.538 467.017 642.989 467.609C641.455 468.187 639.791 468.475 637.999 468.475C633.684 468.475 630.327 466.933 627.927 463.849C625.526 460.75 624.326 456.413 624.326 450.838C624.326 445.278 625.542 440.948 627.972 437.849C630.403 434.735 633.783 433.178 638.112 433.178C639.54 433.178 640.908 433.383 642.214 433.793C643.521 434.188 644.782 434.796 645.997 435.616V440.333C644.766 439.163 643.505 438.305 642.214 437.758C640.923 437.196 639.556 436.915 638.112 436.915C635.12 436.915 632.871 438.077 631.367 440.401C629.879 442.71 629.134 446.189 629.134 450.838C629.134 455.562 629.856 459.064 631.299 461.343C632.757 463.606 634.991 464.738 637.999 464.738C639.016 464.738 639.905 464.624 640.665 464.396C641.439 464.153 642.138 463.781 642.761 463.28V454.142H637.816V450.359H647.159V465.012ZM753.112 464.032V450.656H758.558C761.11 450.656 762.987 451.18 764.187 452.228C765.387 453.261 765.987 455.19 765.987 458.016C765.987 460.158 765.417 461.7 764.278 462.642C763.139 463.568 761.232 464.032 758.558 464.032H753.112ZM753.112 446.918V437.576H758.467C760.715 437.576 762.326 437.955 763.298 438.715C764.285 439.475 764.779 440.713 764.779 442.429C764.779 443.721 764.278 444.792 763.275 445.642C762.288 446.493 760.685 446.918 758.467 446.918H753.112ZM758.558 433.793H748.486V467.814H758.558C762.554 467.814 765.562 467.032 767.582 465.467C769.603 463.887 770.613 461.555 770.613 458.472C770.613 455.433 769.975 453.132 768.699 451.567C767.438 449.987 765.691 449.03 763.458 448.696C765.448 448.392 766.936 447.64 767.924 446.44C768.927 445.24 769.428 443.903 769.428 442.429C769.428 439.68 768.486 437.553 766.602 436.049C764.718 434.545 762.037 433.793 758.558 433.793ZM793.425 450.838C793.425 445.84 792.909 442.27 791.876 440.128C790.858 437.986 789.179 436.915 786.84 436.915C784.515 436.915 782.837 437.986 781.804 440.128C780.786 442.27 780.277 445.84 780.277 450.838C780.277 455.821 780.786 459.383 781.804 461.525C782.837 463.667 784.515 464.738 786.84 464.738C789.179 464.738 790.858 463.675 791.876 461.548C792.909 459.406 793.425 455.836 793.425 450.838ZM798.233 450.838C798.233 456.763 797.291 461.183 795.408 464.1C793.539 467.017 790.683 468.475 786.84 468.475C782.996 468.475 780.14 467.024 778.272 464.123C776.403 461.221 775.469 456.793 775.469 450.838C775.469 444.898 776.403 440.47 778.272 437.553C780.155 434.636 783.011 433.178 786.84 433.178C790.683 433.178 793.539 434.636 795.408 437.553C797.291 440.47 798.233 444.898 798.233 450.838ZM827.925 433.793H801.971V437.667H812.658V467.814H817.284V437.667H827.925V433.793Z" fill="black"/>
<circle cx="733.63" cy="353.986" r="11.2513" fill="#3B4559"/>
<path fill-rule="evenodd" clip-rule="evenodd" d="M699.457 354.344C680.815 354.344 665.703 369.456 665.703 388.098C665.703 397.153 669.269 405.376 675.074 411.438L707.596 447.809C709.525 449.829 710.711 452.567 710.711 455.581C710.711 461.795 705.673 466.832 699.46 466.832C693.246 466.832 688.208 461.795 688.208 455.581C688.208 452.341 689.578 449.421 691.769 447.368L676.803 430.63C669.997 436.805 665.723 445.72 665.723 455.634C665.723 474.276 680.835 489.388 699.477 489.388C718.119 489.388 733.231 474.276 733.231 455.634C733.231 446.427 729.545 438.081 723.567 431.991L712.313 419.33L712.544 419.22C724.686 414.109 733.211 402.099 733.211 388.098C733.211 369.456 718.099 354.344 699.457 354.344ZM699.457 399.349C705.671 399.349 710.708 394.311 710.708 388.098C710.708 381.884 705.671 376.846 699.457 376.846C693.243 376.846 688.206 381.884 688.206 388.098C688.206 394.311 693.243 399.349 699.457 399.349Z" fill="#93AEF4"/>
</svg>
