<svg width="194" height="113" viewBox="0 0 194 113" fill="none" xmlns="http://www.w3.org/2000/svg">
<g clip-path="url(#clip0)">
<path d="M32.0096 85.9393H24.5569V81.4848C23.3195 83.2171 21.8537 84.5116 20.1595 85.3682C18.4842 86.2058 16.79 86.6246 15.0767 86.6246C11.593 86.6246 8.60432 85.2254 6.11055 82.4271C3.63581 79.6097 2.39844 75.6882 2.39844 70.6625C2.39844 65.5227 3.60725 61.6202 6.02488 58.9551C8.44251 56.271 11.4979 54.9289 15.1909 54.9289C18.5794 54.9289 21.511 56.3376 23.9858 59.155V44.0781H32.0096V85.9393ZM10.5936 70.12C10.5936 73.3562 11.041 75.6977 11.9357 77.1445C13.2302 79.2385 15.0386 80.2855 17.3611 80.2855C19.2076 80.2855 20.7781 79.505 22.0726 77.944C23.3671 76.364 24.0143 74.013 24.0143 70.891C24.0143 67.4073 23.3861 64.904 22.1297 63.3811C20.8733 61.8391 19.2647 61.0682 17.304 61.0682C15.4003 61.0682 13.8013 61.8296 12.5068 63.3525C11.2314 64.8564 10.5936 67.1122 10.5936 70.12Z" fill="white"/>
<path d="M57.7386 76.2886L65.7339 77.6307C64.7059 80.5623 63.0783 82.7991 60.851 84.341C58.6428 85.8639 55.873 86.6254 52.5416 86.6254C47.2685 86.6254 43.366 84.9026 40.8342 81.457C38.8354 78.6967 37.8359 75.213 37.8359 71.006C37.8359 65.9804 39.1495 62.0493 41.7765 59.2129C44.4035 56.3574 47.7254 54.9297 51.7421 54.9297C56.2537 54.9297 59.8135 56.4241 62.4215 59.4128C65.0295 62.3825 66.2764 66.9417 66.1622 73.0905H46.0597C46.1168 75.47 46.764 77.3261 48.0014 78.6586C49.2388 79.9721 50.7807 80.6289 52.6273 80.6289C53.8837 80.6289 54.9402 80.2862 55.7968 79.6009C56.6535 78.9156 57.3007 77.8115 57.7386 76.2886ZM58.1954 68.1791C58.1383 65.8566 57.5387 64.0957 56.3965 62.8964C55.2543 61.6781 53.8646 61.0689 52.2275 61.0689C50.4761 61.0689 49.0294 61.7067 47.8872 62.9821C46.745 64.2576 46.1834 65.9899 46.2025 68.1791H58.1954Z" fill="white"/>
<path d="M70.1523 85.9403L81.0888 70.3209L70.6092 55.6152H80.4035L85.7718 63.9532L91.4256 55.6152H100.849L90.5689 69.9782L101.791 85.9403H91.9396L85.7718 76.5458L79.5468 85.9403H70.1523Z" fill="white"/>
<path d="M106.805 85.9393V44.0781H114.829V59.155C117.303 56.3376 120.235 54.9289 123.623 54.9289C127.316 54.9289 130.372 56.271 132.789 58.9551C135.207 61.6202 136.416 65.4561 136.416 70.4627C136.416 75.6406 135.179 79.6287 132.704 82.4271C130.248 85.2254 127.259 86.6246 123.738 86.6246C122.005 86.6246 120.292 86.1963 118.598 85.3396C116.923 84.464 115.476 83.179 114.257 81.4848V85.9393H106.805ZM114.771 70.12C114.771 73.261 115.266 75.5835 116.256 77.0873C117.646 79.2194 119.492 80.2855 121.796 80.2855C123.566 80.2855 125.07 79.5335 126.308 78.0296C127.564 76.5067 128.192 74.1177 128.192 70.8624C128.192 67.3978 127.564 64.904 126.308 63.3811C125.051 61.8391 123.443 61.0682 121.482 61.0682C119.559 61.0682 117.96 61.8201 116.685 63.324C115.409 64.8088 114.771 67.0742 114.771 70.12Z" fill="white"/>
<path d="M141.691 70.3492C141.691 67.6841 142.348 65.1047 143.662 62.6109C144.975 60.1171 146.831 58.2135 149.23 56.9C151.647 55.5864 154.341 54.9297 157.311 54.9297C161.899 54.9297 165.658 56.4241 168.59 59.4128C171.522 62.3825 172.987 66.1422 172.987 70.6919C172.987 75.2797 171.502 79.087 168.533 82.1138C165.582 85.1215 161.861 86.6254 157.368 86.6254C154.589 86.6254 151.933 85.9972 149.401 84.7408C146.888 83.4844 144.975 81.6474 143.662 79.2297C142.348 76.7931 141.691 73.8329 141.691 70.3492ZM149.915 70.7775C149.915 73.7853 150.629 76.0887 152.057 77.6878C153.484 79.2868 155.245 80.0864 157.339 80.0864C159.433 80.0864 161.185 79.2868 162.593 77.6878C164.021 76.0887 164.735 73.7663 164.735 70.7204C164.735 67.7507 164.021 65.4664 162.593 63.8673C161.185 62.2682 159.433 61.4687 157.339 61.4687C155.245 61.4687 153.484 62.2682 152.057 63.8673C150.629 65.4664 149.915 67.7698 149.915 70.7775Z" fill="white"/>
<path d="M192.513 55.6143V62.0105H187.031V74.2319C187.031 76.7067 187.078 78.1534 187.174 78.5722C187.288 78.972 187.526 79.3051 187.888 79.5716C188.268 79.8382 188.725 79.9714 189.258 79.9714C190.001 79.9714 191.076 79.7144 192.485 79.2004L193.17 85.4254C191.305 86.2249 189.192 86.6246 186.831 86.6246C185.384 86.6246 184.08 86.3867 182.919 85.9108C181.758 85.4158 180.901 84.7876 180.349 84.0262C179.816 83.2457 179.445 82.1987 179.235 80.8852C179.064 79.9524 178.978 78.0678 178.978 75.2313V62.0105H175.295V55.6143H178.978V49.5892L187.031 44.9062V55.6143H192.513Z" fill="white"/>
<path d="M69.5992 0L35.6992 38H103.399L69.5992 0Z" fill="#93AEF4"/>
</g>
<defs>
<clipPath id="clip0">
<rect width="193.9" height="112.4" fill="white"/>
</clipPath>
</defs>
</svg>
